<svg id="visual" viewBox="0 0 256 256" width="256" height="256" xmlns="http://www.w3.org/2000/svg" xmlns:xlink="http://www.w3.org/1999/xlink" version="1.1"><rect x="0" y="0" width="256" height="256" fill="#140021"></rect><path d="M0 146L20 146L20 141L39 141L39 145L59 145L59 146L79 146L79 151L98 151L98 149L118 149L118 145L138 145L138 143L158 143L158 161L177 161L177 141L197 141L197 144L217 144L217 144L236 144L236 148L256 148L256 150L256 257L256 257L236 257L236 257L217 257L217 257L197 257L197 257L177 257L177 257L158 257L158 257L138 257L138 257L118 257L118 257L98 257L98 257L79 257L79 257L59 257L59 257L39 257L39 257L20 257L20 257L0 257Z" fill="#9900ff"></path><path d="M0 165L20 165L20 175L39 175L39 166L59 166L59 174L79 174L79 168L98 168L98 169L118 169L118 172L138 172L138 170L158 170L158 158L177 158L177 157L197 157L197 178L217 178L217 164L236 164L236 166L256 166L256 157L256 257L256 257L236 257L236 257L217 257L217 257L197 257L197 257L177 257L177 257L158 257L158 257L138 257L138 257L118 257L118 257L98 257L98 257L79 257L79 257L59 257L59 257L39 257L39 257L20 257L20 257L0 257Z" fill="#8b00e8"></path><path d="M0 181L20 181L20 192L39 192L39 188L59 188L59 188L79 188L79 183L98 183L98 189L118 189L118 186L138 186L138 187L158 187L158 181L177 181L177 191L197 191L197 185L217 185L217 195L236 195L236 192L256 192L256 189L256 257L256 257L236 257L236 257L217 257L217 257L197 257L197 257L177 257L177 257L158 257L158 257L138 257L138 257L118 257L118 257L98 257L98 257L79 257L79 257L59 257L59 257L39 257L39 257L20 257L20 257L0 257Z" fill="#7e00d1"></path><path d="M0 192L20 192L20 204L39 204L39 207L59 207L59 196L79 196L79 193L98 193L98 197L118 197L118 201L138 201L138 199L158 199L158 206L177 206L177 198L197 198L197 194L217 194L217 198L236 198L236 209L256 209L256 193L256 257L256 257L236 257L236 257L217 257L217 257L197 257L197 257L177 257L177 257L158 257L158 257L138 257L138 257L118 257L118 257L98 257L98 257L79 257L79 257L59 257L59 257L39 257L39 257L20 257L20 257L0 257Z" fill="#7000bb"></path><path d="M0 220L20 220L20 210L39 210L39 215L59 215L59 215L79 215L79 225L98 225L98 224L118 224L118 225L138 225L138 222L158 222L158 227L177 227L177 217L197 217L197 227L217 227L217 224L236 224L236 225L256 225L256 219L256 257L256 257L236 257L236 257L217 257L217 257L197 257L197 257L177 257L177 257L158 257L158 257L138 257L138 257L118 257L118 257L98 257L98 257L79 257L79 257L59 257L59 257L39 257L39 257L20 257L20 257L0 257Z" fill="#6300a5"></path><path d="M0 242L20 242L20 230L39 230L39 233L59 233L59 239L79 239L79 243L98 243L98 244L118 244L118 243L138 243L138 241L158 241L158 244L177 244L177 238L197 238L197 240L217 240L217 230L236 230L236 239L256 239L256 235L256 257L256 257L236 257L236 257L217 257L217 257L197 257L197 257L177 257L177 257L158 257L158 257L138 257L138 257L118 257L118 257L98 257L98 257L79 257L79 257L59 257L59 257L39 257L39 257L20 257L20 257L0 257Z" fill="#560090"></path></svg>
